<?xml version="1.0" encoding="utf-8"?>
<!-- Generator: Adobe Illustrator 16.0.0, SVG Export Plug-In . SVG Version: 6.00 Build 0)  -->
<!DOCTYPE svg PUBLIC "-//W3C//DTD SVG 1.1//EN" "http://www.w3.org/Graphics/SVG/1.1/DTD/svg11.dtd">
<svg version="1.1" id="Layer_1" xmlns="http://www.w3.org/2000/svg" xmlns:xlink="http://www.w3.org/1999/xlink" x="0px" y="0px"
	 width="284px" height="160px" viewBox="0 0 284 160" enable-background="new 0 0 284 160" xml:space="preserve">
<title>icon-easy</title>
<desc>Created with Sketch.</desc>
<g id="Components">
	<g id="Artboard" transform="translate(-1191.000000, -774.000000)">
		<g id="icon-easy" transform="translate(1191.000000, 774.000000)">
			<g id="icons8-notebook" transform="translate(83.000000, 0.000000)">
				<g id="Group" transform="translate(0.000000, 59.671875)">
					<path id="Shape" fill="#FFD596" d="M3.158,98.758c-0.872,0-1.579-0.703-1.579-1.57v-5.979l12.12-30.138h92.599l12.12,30.138
						v5.979c0,0.867-0.707,1.57-1.579,1.57H3.158z"/>
					<path id="Shape_1_" fill="#FF9900" d="M105.23,62.641l11.611,28.871v5.676H3.158v-5.676L14.77,62.641H105.23L105.23,62.641z
						 M107.369,59.5H12.631L0,90.906v6.281c0,1.733,1.415,3.141,3.158,3.141h113.684c1.744,0,3.158-1.407,3.158-3.141v-6.281
						L107.369,59.5L107.369,59.5z"/>
				</g>
				<g id="Group_1_" transform="translate(0.000000, 59.671875)">
					<polygon id="Shape_2_" fill="#FFEED5" points="2.331,89.336 13.699,61.07 106.301,61.07 117.67,89.336 					"/>
					<path id="Shape_3_" fill="#FF9900" d="M105.23,62.641l10.105,25.125H4.664L14.77,62.641H105.23L105.23,62.641z M107.369,59.5
						H12.631L0,90.906h120L107.369,59.5L107.369,59.5z"/>
				</g>
				<g id="Group_2_" transform="translate(12.631579, 0.000000)">
					<path id="Shape_4_" fill="#FFFFFF" d="M1.579,120.742V66.096c0-2.771,2.125-5.025,4.737-5.025h82.105
						c2.611,0,4.736,2.255,4.736,5.025v54.646H1.579z"/>
					<path id="Shape_5_" fill="#FF9900" d="M88.421,62.641c1.74,0,3.158,1.549,3.158,3.455v53.076H3.158V66.096
						c0-1.906,1.418-3.455,3.158-3.455H88.421L88.421,62.641z M88.421,59.5H6.316C2.826,59.5,0,62.452,0,66.096v56.217h94.738
						V66.096C94.738,62.452,91.91,59.5,88.421,59.5L88.421,59.5z"/>
				</g>
				<polygon id="Shape_6_" fill="#FFD596" points="75.789,134.875 44.21,134.875 41.053,147.438 78.947,147.438 				"/>
				<polygon id="Shape_7_" fill="#FFD596" points="18.947,128.594 101.053,128.594 104.211,138.016 15.79,138.016 				"/>
			</g>
			<g id="icons8-good_quality" transform="translate(124.000000, 11.000000)">
				<g id="Group_3_">
					<path id="Shape_8_" fill="#FFEED5" d="M19,97C8.799,97,0.5,88.701,0.5,78.5S8.799,60,19,60s18.5,8.299,18.5,18.5
						S29.201,97,19,97z"/>
					<path id="Shape_9_" fill="#FF9900" d="M19,60.5c9.925,0,18,8.075,18,18s-8.075,18-18,18s-18-8.075-18-18S9.075,60.5,19,60.5
						L19,60.5z M19,59.5c-10.493,0-19,8.507-19,19s8.507,19,19,19s19-8.507,19-19S29.493,59.5,19,59.5L19,59.5z"/>
				</g>
				<g id="Group_4_" transform="translate(11.000000, 6.000000)">
					<path id="Shape_10_" fill="#FFFFFF" d="M4,83c-1.93,0-3.5-1.57-3.5-3.5v-8c0-2.873,1.284-4.45,2.416-5.841
						c0.814-1,1.584-1.945,1.584-3.159V62c0-1.104,0.897-2,2-2c1.104,0,2,0.896,2,2v1c0,1.299-0.497,3.243-0.958,4.3L7.236,68H16.5
						c1.104,0,2,0.896,2,2c0,0.831-0.527,1.582-1.314,1.87l-0.692,0.254l0.491,0.549c0.332,0.373,0.517,0.845,0.517,1.327
						c0,0.831-0.528,1.582-1.315,1.87l-0.691,0.254l0.49,0.549c0.334,0.373,0.518,0.845,0.518,1.327
						c0,0.768-0.454,1.477-1.154,1.807l-0.576,0.27l0.396,0.496c0.217,0.271,0.332,0.593,0.332,0.928c0,0.827-0.673,1.5-1.5,1.5H4z"
						/>
					<path id="Shape_11_" fill="#FF9900" d="M6.5,60.5C7.327,60.5,8,61.173,8,62v1c0,1.195-0.475,3.086-0.917,4.1l-0.61,1.4H8h1.357
						H16.5c0.827,0,1.5,0.673,1.5,1.5c0,0.621-0.396,1.184-0.988,1.4l-1.384,0.508l0.983,1.099C16.789,73.205,17,73.538,17,74
						c0,0.621-0.396,1.184-0.988,1.4l-1.384,0.508l0.983,1.099C15.789,77.205,16,77.538,16,78c0,0.583-0.333,1.102-0.868,1.354
						l-1.147,0.539l0.791,0.99C14.878,81.011,15,81.223,15,81.5c0,0.551-0.449,1-1,1H9.357h-2.69H4c-1.654,0-3-1.346-3-3v-8
						c0-2.695,1.224-4.199,2.304-5.525C4.176,64.904,5,63.893,5,62.5V62C5,61.173,5.673,60.5,6.5,60.5L6.5,60.5z M6.5,59.5
						C5.119,59.5,4,60.619,4,62v0.5c0,2.521-4,3.82-4,9v8c0,2.209,1.791,4,4,4h2.667h2.69H14c1.105,0,2-0.895,2-2
						c0-0.473-0.17-0.9-0.443-1.242C16.407,79.859,17,79.002,17,78c0-0.641-0.248-1.218-0.645-1.66C17.313,75.989,18,75.078,18,74
						c0-0.641-0.248-1.218-0.645-1.66C18.313,71.989,19,71.078,19,70c0-1.381-1.119-2.5-2.5-2.5H9.357H8c0.484-1.109,1-3.13,1-4.5
						v-1C9,60.619,7.881,59.5,6.5,59.5L6.5,59.5z"/>
				</g>
			</g>
			<g id="icons8-product" transform="translate(0.000000, 27.000000)">
				<g id="Group_5_" transform="translate(1.388889, 5.529412)">
					<rect id="Rectangle-path" x="0.695" y="60.191" fill="#FFEED5" width="45.833" height="40.088"/>
					<path id="Shape_12_" fill="#FF9900" d="M45.833,60.883v38.705H1.389V60.883H45.833L45.833,60.883z M47.222,59.5H0v41.471
						h47.223V59.5L47.222,59.5z"/>
				</g>
				<g id="Group_6_">
					<rect id="Rectangle-path_1_" x="0.694" y="60.191" fill="#FFEED5" width="48.611" height="5.529"/>
					<path id="Shape_13_" fill="#FF9900" d="M48.611,60.883v4.146H1.389v-4.146H48.611L48.611,60.883z M50,59.5H0v6.912h50V59.5
						L50,59.5z"/>
				</g>
				<path id="Shape_14_" fill="#FF9900" d="M30.556,70.559H25h-5.556c-0.767,0-1.389,0.619-1.389,1.383
					c0,0.763,0.622,1.383,1.389,1.383H25h5.556c0.767,0,1.389-0.62,1.389-1.383C31.944,71.178,31.322,70.559,30.556,70.559z"/>
				<path id="Shape_15_" fill="none" stroke="#FFD596" stroke-width="1.3889" stroke-linecap="round" d="M32.639,100.279h9.723"/>
				<path id="Shape_16_" fill="none" stroke="#FFD596" stroke-width="1.3889" stroke-linecap="round" d="M40.972,97.515v-5.529"/>
				<path id="Shape_17_" fill="none" stroke="#FFD596" stroke-width="1.3889" stroke-linecap="round" d="M34.028,97.515v-5.529"/>
				<polygon id="Shape_18_" fill="#FFD596" points="34.028,89.912 31.944,92.676 36.111,92.676 				"/>
				<polygon id="Shape_19_" fill="#FFD596" points="40.972,89.912 38.889,92.676 43.056,92.676 				"/>
			</g>
			<g id="icon-cargo-ship" transform="translate(234.000000, 24.000000)">
				<path id="Shape_20_" fill="#FF9900" d="M5.921,68.711L5.921,68.711c-0.362,0-0.657-0.297-0.657-0.658v-7.895
					c0-0.362,0.295-0.658,0.657-0.658l0,0c0.362,0,0.658,0.296,0.658,0.658v7.895C6.579,68.414,6.283,68.711,5.921,68.711z"/>
				<g id="Group_7_" transform="translate(19.736842, 7.894737)">
					<rect id="Rectangle-path_2_" x="0.658" y="60.158" fill="#FFD596" width="7.895" height="7.895"/>
					<path id="Shape_21_" fill="#FF9900" d="M7.894,60.816v6.578H1.316v-6.578H7.894L7.894,60.816z M9.21,59.5h-9.211v9.211H9.21
						V59.5L9.21,59.5z"/>
				</g>
				<g id="Group_8_" transform="translate(27.631579, 7.894737)">
					<rect id="Rectangle-path_3_" x="0.657" y="60.158" fill="#FFD596" width="7.895" height="7.895"/>
					<path id="Shape_22_" fill="#FF9900" d="M7.895,60.816v6.578H1.316v-6.578H7.895L7.895,60.816z M9.21,59.5h-9.211v9.211H9.21
						V59.5L9.21,59.5z"/>
				</g>
				<g id="Group_9_" transform="translate(35.526316, 7.894737)">
					<rect id="Rectangle-path_4_" x="0.657" y="60.158" fill="#FFD596" width="7.896" height="7.895"/>
					<path id="Shape_23_" fill="#FF9900" d="M7.895,60.816v6.578H1.315v-6.578H7.895L7.895,60.816z M9.21,59.5H0v9.211h9.21V59.5
						L9.21,59.5z"/>
				</g>
				<g id="Group_10_" transform="translate(19.736842, 15.789474)">
					<rect id="Rectangle-path_5_" x="0.658" y="60.158" fill="#FFD596" width="7.895" height="7.895"/>
					<path id="Shape_24_" fill="#FF9900" d="M7.894,60.816v6.578H1.316v-6.578H7.894L7.894,60.816z M9.21,59.5h-9.211v9.211H9.21
						V59.5L9.21,59.5z"/>
				</g>
				<g id="Group_11_" transform="translate(27.631579, 15.789474)">
					<rect id="Rectangle-path_6_" x="0.657" y="60.158" fill="#FFD596" width="7.895" height="7.895"/>
					<path id="Shape_25_" fill="#FF9900" d="M7.895,60.816v6.578H1.316v-6.578H7.895L7.895,60.816z M9.21,59.5h-9.211v9.211H9.21
						V59.5L9.21,59.5z"/>
				</g>
				<g id="Group_12_" transform="translate(35.526316, 15.789474)">
					<rect id="Rectangle-path_7_" x="0.657" y="60.158" fill="#FFD596" width="7.896" height="7.895"/>
					<path id="Shape_26_" fill="#FF9900" d="M7.895,60.816v6.578H1.315v-6.578H7.895L7.895,60.816z M9.21,59.5H0v9.211h9.21V59.5
						L9.21,59.5z"/>
				</g>
				<g id="Group_13_" transform="translate(0.000000, 6.578947)">
					<polygon id="Shape_27_" fill="#FFEED5" points="0.658,77.263 0.658,60.157 14.986,60.157 13.829,65.95 13.816,77.263 					"/>
					<path id="Shape_28_" fill="#FF9900" d="M14.184,60.816l-1,5.006l-0.025,0.127v0.131v10.525H1.316V60.816H14.184L14.184,60.816z
						 M15.789,59.5H0v18.421h14.474V66.079L15.789,59.5L15.789,59.5z"/>
				</g>
				<g id="Group_14_" transform="translate(0.000000, 19.736842)">
					<path id="Shape_29_" fill="#FFD596" d="M4.221,83.917c-0.076-2.705-0.675-4.338-1.36-6.208
						c-0.955-2.603-2.137-5.825-2.2-13.604c0,0,29.609,0,29.613,0c0.875,0,4.742-0.206,8.178-3.947h10.887
						c-0.103,10.268-2.622,14.254-4.656,17.47c-1.242,1.966-2.328,3.682-2.467,6.294l-18.26,2.413L4.221,83.917z"/>
					<path id="Shape_30_" fill="#FF9900" d="M48.671,60.816c-0.201,9.59-2.6,13.385-4.544,16.461
						c-1.158,1.83-2.26,3.573-2.524,6.062l-17.651,2.333l-19.098-2.34c-0.145-2.493-0.744-4.129-1.376-5.849
						c-0.956-2.609-2.034-5.546-2.151-12.72l28.873-0.002c0,0,0.057,0.004,0.162,0.004c0.79,0,4.787-0.197,8.374-3.949H48.671
						L48.671,60.816z M50,59.499c0,0-8.48,0-11.842,0c-3.33,3.779-7.137,3.949-7.795,3.949c-0.066,0-0.1-0.002-0.1-0.002H0
						c0,14.286,3.571,13.938,3.571,21.053l20.386,2.498l18.899-2.498C42.856,77.384,50,77.357,50,59.499L50,59.499z"/>
				</g>
				<rect id="Rectangle-path_8_" x="5.264" y="70.026" fill="#FFD596" width="2.631" height="3.947"/>
				<g id="Group_15_" transform="translate(0.000000, 19.736842)">
					<path id="Shape_31_" fill="#FFEED5" d="M0.908,69.369c-0.169-1.526-0.238-3.025-0.249-5.264H30.66l0.188-0.354
						c0.076-0.146,1.944-3.594,6.652-3.594h11.84c-0.035,3.625-0.354,6.582-0.991,9.211H0.908z"/>
					<path id="Shape_32_" fill="#FF9900" d="M48.671,60.816c-0.06,3.047-0.333,5.604-0.845,7.895H1.502
						c-0.107-1.158-0.161-2.359-0.18-3.947h28.941l0.791-0.01l0.373-0.694c0.07-0.132,1.788-3.243,6.072-3.243H48.671L48.671,60.816
						z M50,59.499c0,0-9.139,0-12.5,0c-5.193,0-7.236,3.947-7.236,3.947H0c0,2.926,0.084,4.666,0.322,6.58H48.86
						C49.551,67.395,50,64.126,50,59.499L50,59.499z"/>
				</g>
				<path id="Shape_33_" fill="#FFD596" d="M38.158,88.447c0-1.454,1.178-2.631,2.631-2.631h1.316c1.453,0,2.631,1.177,2.631,2.631
					H38.158z"/>
				<g id="Group_16_" transform="translate(0.000000, 40.789474)">
					<path id="Shape_34_" fill="#FFEED5" d="M0,68.711h50v-8.057c-1.721-0.346-3.752-1.154-5.264-1.154
						c-1.918,0-4.688,1.316-6.578,1.316c-1.893,0-4.66-1.316-6.579-1.316S26.891,60.816,25,60.816c-1.893,0-4.66-1.316-6.579-1.316
						s-4.688,1.316-6.579,1.316c-1.892,0-4.66-1.316-6.578-1.316c-1.512,0-3.543,0.809-5.264,1.154V68.711z"/>
					<path id="Shape_35_" fill="none" stroke="#FF9900" stroke-width="1.3158" stroke-linecap="round" d="M0.658,61.181
						c0.478-0.114,0.971-0.251,1.465-0.391c1.112-0.311,2.266-0.633,3.141-0.633c0.872,0,2.021,0.324,3.134,0.637
						c1.186,0.333,2.411,0.68,3.444,0.68s2.26-0.347,3.445-0.68c1.111-0.313,2.262-0.637,3.134-0.637s2.022,0.324,3.134,0.637
						c1.186,0.333,2.412,0.68,3.445,0.68s2.26-0.347,3.445-0.68c1.111-0.313,2.262-0.637,3.134-0.637s2.022,0.324,3.134,0.637
						c1.186,0.333,2.412,0.68,3.445,0.68s2.259-0.347,3.444-0.68c1.112-0.313,2.262-0.637,3.134-0.637
						c0.875,0,2.028,0.322,3.141,0.633c0.494,0.139,0.987,0.276,1.465,0.391"/>
				</g>
				<polygon id="Shape_36_" fill="#FFD596" points="10.526,73.974 13.158,73.974 13.158,73.974 13.158,72.658 13.158,72.527 
					13.184,72.4 13.658,70.026 10.526,70.026 				"/>
			</g>
			<rect id="Rectangle-2" x="55" y="105.5" fill="#FFD596" width="32" height="5"/>
			<rect id="Rectangle-2_1_" x="196" y="105.5" fill="#FFD596" width="32" height="5"/>
		</g>
	</g>
</g>
</svg>
