<?xml version="1.0" encoding="UTF-8"?>
<svg width="38px" height="38px" viewBox="0 0 38 38" version="1.1" xmlns="http://www.w3.org/2000/svg" xmlns:xlink="http://www.w3.org/1999/xlink">
    <!-- Generator: Sketch 45.2 (43514) - http://www.bohemiancoding.com/sketch -->
    <title>icon-location</title>
    <desc>Created with Sketch.</desc>
    <defs></defs>
    <g id="Components" stroke="none" stroke-width="1" fill="none" fill-rule="evenodd">
        <g id="Artboard" transform="translate(-1207.000000, -113.000000)" fill-rule="nonzero">
            <g id="icon-location" transform="translate(1207.000000, 113.000000)">
                <path d="M38,19 C38,29.578 29.382,38 19,38 C8.619,38 0,29.578 0,19 C0,8.422 8.422,0 19,0 C29.578,0 38,8.422 38,19 Z" id="Shape" fill="#FFEED5"></path>
                <path d="M26.124,25.951 C26.556,26.166 26.988,26.166 27.205,26.598 C27.852,27.247 27.852,28.326 28.069,28.974 C28.284,29.838 28.501,30.701 28.933,31.565 C29.149,32.646 29.581,33.725 29.797,34.588 C29.938,34.478 30.103,34.375 30.26,34.27 C34.927,30.822 38,25.302 38,19 C38,13.403 35.627,8.425 31.839,4.963 C31.38,4.812 30.909,4.798 30.443,5.005 C29.795,5.222 29.364,6.086 28.932,6.517 C28.5,7.165 28.068,7.812 27.637,8.46 C27.42,8.676 27.205,9.108 27.42,9.324 C27.42,9.54 27.637,9.54 27.852,9.54 C28.284,9.757 28.501,9.757 28.933,9.972 C29.149,9.972 29.365,10.189 29.149,10.404 C29.149,10.404 29.149,10.621 28.933,10.621 C27.852,11.701 26.774,12.564 25.694,13.643 C25.478,13.859 25.262,14.291 25.262,14.507 C25.262,14.723 25.478,14.723 25.478,14.939 C25.478,15.156 25.262,15.156 25.046,15.371 C24.614,15.588 24.182,15.803 23.966,16.02 C23.75,16.452 23.966,17.1 23.75,17.531 C23.534,18.61 22.885,19.474 22.453,20.554 C22.021,21.201 21.806,21.849 21.375,22.497 C21.375,23.361 21.158,24.008 21.59,24.656 C22.67,26.166 24.612,25.302 26.124,25.951 Z" id="Shape" fill="#FFD596"></path>
                <path d="M25.725,1.21 C23.638,0.432 21.375,0 19,0 C18.609,0 18.224,0.019 17.839,0.041 C17.569,0.46 17.354,0.873 17.273,1.119 C17.057,2.198 17.921,1.983 18.784,2.198 C18.784,2.198 19,3.925 19,4.141 C19.216,5.222 18.568,5.868 18.568,6.948 C18.568,7.596 18.568,8.675 19,9.107 L19.216,9.107 C19.432,9.107 19.648,8.891 20.08,8.675 C20.728,8.243 21.376,7.596 22.023,7.164 C22.672,6.732 23.319,6.085 23.751,5.653 C24.399,5.221 24.83,4.358 25.046,3.709 C25.262,3.277 26.002,2.005 25.785,1.358 C25.769,1.323 25.746,1.263 25.725,1.21 Z" id="Shape" fill="#FFD596"></path>
                <path d="M0.432,19.902 C1.08,21.197 2.375,22.494 3.671,23.356 C4.535,24.004 6.262,24.004 7.125,25.083 C7.773,25.948 7.557,27.026 7.557,28.106 C7.557,29.401 8.421,30.481 8.852,31.559 C9.068,32.208 9.284,33.071 9.5,33.719 C9.5,33.935 9.716,35.23 9.716,35.446 C9.785,35.481 9.842,35.56 9.893,35.658 C11.046,36.29 12.271,36.798 13.55,37.182 C13.566,37.183 13.587,37.17 13.603,37.174 C13.819,37.174 14.683,35.878 14.683,35.662 C15.331,35.014 15.762,34.151 16.41,33.719 C16.842,33.503 17.274,33.287 17.705,32.854 C18.137,32.422 18.353,31.559 18.569,30.911 C18.785,30.48 19.001,29.617 18.785,28.969 C18.648,28.559 18.569,28.321 18.137,28.105 C16.842,27.673 15.546,27.673 14.467,26.593 C14.251,26.161 14.251,25.729 14.035,25.298 C13.603,24.866 12.524,24.65 11.876,24.434 L9.069,24.434 L7.557,24.434 C6.909,24.218 6.478,23.354 6.046,22.707 C6.046,22.491 6.046,22.058 5.614,22.058 C5.182,21.843 4.75,22.275 4.319,22.058 C4.103,21.843 4.103,21.626 4.103,21.411 C4.103,20.762 4.535,20.115 4.967,19.683 C5.614,19.253 6.262,19.9 6.909,19.9 C7.125,19.9 7.125,19.9 7.341,20.116 C7.989,20.332 8.205,21.195 8.205,21.844 L8.205,22.276 C8.205,22.492 8.421,22.492 8.637,22.492 C8.853,21.413 8.853,20.332 9.069,19.253 C9.069,17.958 10.364,16.661 11.444,16.23 C11.876,16.015 12.092,16.447 12.523,16.23 C13.818,15.798 17.057,14.503 16.409,12.777 C15.977,11.265 14.682,9.755 12.955,9.97 C12.523,10.187 12.307,10.402 11.876,10.619 C11.228,11.051 9.933,12.346 9.285,12.346 C8.206,12.13 8.206,10.619 8.421,9.97 C8.637,9.106 10.58,6.301 11.875,6.732 C12.091,6.948 12.523,7.38 12.739,7.596 C13.171,7.812 13.819,7.812 14.466,7.812 C14.682,7.812 14.898,7.812 15.114,7.596 C15.33,7.38 15.33,7.38 15.33,7.164 C15.33,6.516 14.682,5.868 14.251,5.436 C13.819,5.004 13.171,4.572 12.524,4.358 C11.144,3.943 8.229,4.434 5.852,5.236 C2.24,8.685 0,13.553 0,19 C0,19.091 0.009,19.18 0.01,19.271 C0.164,19.489 0.312,19.702 0.432,19.902 Z" id="Shape" fill="#FFD596"></path>
                <path d="M19,1 C29.093,1 37,8.907 37,19 C37,28.925 28.925,37 19,37 C9.075,37 1,28.925 1,19 C1,8.907 8.907,1 19,1 L19,1 Z M19,0 C8.422,0 0,8.422 0,19 C0,29.578 8.619,38 19,38 C29.382,38 38,29.578 38,19 C38,8.422 29.578,0 19,0 L19,0 Z" id="Shape" fill="#FF9900"></path>
                <g id="Group" transform="translate(22.000000, 0.000000)">
                    <path d="M8.001,23.23 C6.438,21.359 0.5,13.862 0.5,8 C0.5,3.864 3.864,0.5 8,0.5 C12.136,0.5 15.5,3.864 15.5,8 C15.5,13.911 9.566,21.367 8.001,23.23 Z" id="Shape" fill="#FFD596"></path>
                    <path d="M8,1 C11.86,1 15,4.14 15,8 C15,13.34 9.945,20.06 8.002,22.445 C6.06,20.052 1,13.307 1,8 C1,4.14 4.14,1 8,1 L8,1 Z M8,0 C3.582,0 0,3.582 0,8 C0,14.989 8,24 8,24 C8,24 16,15.044 16,8 C16,3.582 12.418,0 8,0 L8,0 Z" id="Shape" fill="#FF9900"></path>
                </g>
                <g id="Group" transform="translate(26.000000, 4.000000)">
                    <circle id="Oval" fill="#FFFFFF" cx="4" cy="4" r="3.5"></circle>
                    <path d="M4,1 C5.657,1 7,2.343 7,4 C7,5.657 5.657,7 4,7 C2.343,7 1,5.657 1,4 C1,2.343 2.343,1 4,1 L4,1 Z M4,0 C1.794,0 0,1.794 0,4 C0,6.206 1.794,8 4,8 C6.206,8 8,6.206 8,4 C8,1.794 6.206,0 4,0 L4,0 Z" id="Shape" fill="#FF9900"></path>
                </g>
            </g>
        </g>
    </g>
</svg>