<?xml version="1.0" encoding="UTF-8"?>
<svg width="38px" height="36px" viewBox="0 0 38 36" version="1.1" xmlns="http://www.w3.org/2000/svg" xmlns:xlink="http://www.w3.org/1999/xlink">
    <!-- Generator: Sketch 45.2 (43514) - http://www.bohemiancoding.com/sketch -->
    <title>icon-detail</title>
    <desc>Created with Sketch.</desc>
    <defs></defs>
    <g id="Components" stroke="none" stroke-width="1" fill="none" fill-rule="evenodd">
        <g id="Artboard" transform="translate(-1207.000000, -114.000000)" fill-rule="nonzero">
            <g id="icon-detail" transform="translate(1207.000000, 114.000000)">
                <g id="Group">
                    <rect id="Rectangle-path" fill="#FFFFFF" x="0.527777778" y="0.529411765" width="36.9444444" height="34.9411765"></rect>
                    <path d="M36.9444444,1.05882353 L36.9444444,34.9411765 L1.05555556,34.9411765 L1.05555556,1.05882353 L36.9444444,1.05882353 L36.9444444,1.05882353 Z M38,0 L0,0 L0,36 L38,36 L38,0 L38,0 Z" id="Shape" fill="#FF9900"></path>
                </g>
                <rect id="Rectangle-path" fill="#FFD596" x="1.05555556" y="1.05882353" width="35.8888889" height="8.47058824"></rect>
                <rect id="Rectangle-path" fill="#FFFFFF" x="4.22222222" y="4.23529412" width="2.11111111" height="2.11764706"></rect>
                <rect id="Rectangle-path" fill="#FFFFFF" x="8.44444444" y="4.23529412" width="2.11111111" height="2.11764706"></rect>
                <rect id="Rectangle-path" fill="#FFFFFF" x="12.6666667" y="4.23529412" width="2.11111111" height="2.11764706"></rect>
                <rect id="Rectangle-path" fill="#FFD596" x="4.22222222" y="13.7647059" width="13.7222222" height="18"></rect>
                <path d="M33.25,14.8235294 L21.6388889,14.8235294 C21.3486111,14.8235294 21.1111111,14.5852941 21.1111111,14.2941176 L21.1111111,14.2941176 C21.1111111,14.0029412 21.3486111,13.7647059 21.6388889,13.7647059 L33.25,13.7647059 C33.5402778,13.7647059 33.7777778,14.0029412 33.7777778,14.2941176 L33.7777778,14.2941176 C33.7777778,14.5852941 33.5402778,14.8235294 33.25,14.8235294 Z" id="Shape" fill="#FF9900"></path>
                <path d="M33.25,19.0588235 L21.6388889,19.0588235 C21.3486111,19.0588235 21.1111111,18.8205882 21.1111111,18.5294118 L21.1111111,18.5294118 C21.1111111,18.2382353 21.3486111,18 21.6388889,18 L33.25,18 C33.5402778,18 33.7777778,18.2382353 33.7777778,18.5294118 L33.7777778,18.5294118 C33.7777778,18.8205882 33.5402778,19.0588235 33.25,19.0588235 Z" id="Shape" fill="#FF9900"></path>
                <path d="M33.25,23.2941176 L21.6388889,23.2941176 C21.3486111,23.2941176 21.1111111,23.0558824 21.1111111,22.7647059 L21.1111111,22.7647059 C21.1111111,22.4735294 21.3486111,22.2352941 21.6388889,22.2352941 L33.25,22.2352941 C33.5402778,22.2352941 33.7777778,22.4735294 33.7777778,22.7647059 L33.7777778,22.7647059 C33.7777778,23.0558824 33.5402778,23.2941176 33.25,23.2941176 Z" id="Shape" fill="#FF9900"></path>
                <path d="M33.25,27.5294118 L21.6388889,27.5294118 C21.3486111,27.5294118 21.1111111,27.2911765 21.1111111,27 L21.1111111,27 C21.1111111,26.7088235 21.3486111,26.4705882 21.6388889,26.4705882 L33.25,26.4705882 C33.5402778,26.4705882 33.7777778,26.7088235 33.7777778,27 L33.7777778,27 C33.7777778,27.2911765 33.5402778,27.5294118 33.25,27.5294118 Z" id="Shape" fill="#FF9900"></path>
                <path d="M33.25,31.7647059 L21.6388889,31.7647059 C21.3486111,31.7647059 21.1111111,31.5264706 21.1111111,31.2352941 L21.1111111,31.2352941 C21.1111111,30.9441176 21.3486111,30.7058824 21.6388889,30.7058824 L33.25,30.7058824 C33.5402778,30.7058824 33.7777778,30.9441176 33.7777778,31.2352941 L33.7777778,31.2352941 C33.7777778,31.5264706 33.5402778,31.7647059 33.25,31.7647059 Z" id="Shape" fill="#FF9900"></path>
            </g>
        </g>
    </g>
</svg>