<?xml version="1.0" encoding="UTF-8"?>
<svg width="97px" height="72px" viewBox="0 0 97 72" version="1.1" xmlns="http://www.w3.org/2000/svg" xmlns:xlink="http://www.w3.org/1999/xlink">
    <!-- Generator: Sketch 42 (36781) - http://www.bohemiancoding.com/sketch -->
    <title>icon/no-photo-icon</title>
    <desc>Created with Sketch.</desc>
    <defs></defs>
    <g id="Create-campaign" stroke="none" stroke-width="1" fill="none" fill-rule="evenodd">
        <g id="create-campaign---scene-01" transform="translate(-440.000000, -1352.000000)" stroke="#DEE6E7" stroke-width="4">
            <g id="form" transform="translate(350.000000, 260.000000)">
                <g id="input" transform="translate(0.000000, 814.000000)">
                    <g id="Group" transform="translate(0.000000, 94.000000)">
                        <g id="icon/no-photo-icon" transform="translate(91.000000, 184.000000)">
                            <path d="M93.9456,5.1748 C93.9456,3.4216 92.526,2.0004 90.7748,2.0004 L5.116,2.0004 C3.3648,2.0004 1.9452,3.4216 1.9452,5.1748 L1.9452,66.8264 C1.9452,68.5796 3.3648,70.0008 5.116,70.0008 L90.7744,70.0008 C92.5256,70.0008 93.9452,68.5796 93.9452,66.8264 L93.9452,5.1748 L93.9456,5.1748 Z" id="Shape"></path>
                            <circle id="Oval" cx="25.8004" cy="26.0768" r="8.3428"></circle>
                            <polyline id="Shape" points="21.8936 70.0008 49.5288 31.0712 60.9552 46.49 75.6504 23.38 93.9456 49.9864"></polyline>
                        </g>
                    </g>
                </g>
            </g>
        </g>
    </g>
</svg>