<?xml version="1.0" encoding="UTF-8"?>
<svg width="38px" height="38px" viewBox="0 0 38 38" version="1.1" xmlns="http://www.w3.org/2000/svg" xmlns:xlink="http://www.w3.org/1999/xlink">
    <!-- Generator: Sketch 45.2 (43514) - http://www.bohemiancoding.com/sketch -->
    <title>icon-plane</title>
    <desc>Created with Sketch.</desc>
    <defs></defs>
    <g id="Components" stroke="none" stroke-width="1" fill="none" fill-rule="evenodd">
        <g id="Artboard" transform="translate(-1275.000000, -116.000000)" fill-rule="nonzero">
            <g id="icon-plane" transform="translate(1296.646447, 132.353553) rotate(45.000000) translate(-1296.646447, -132.353553) translate(1277.646447, 111.853553)">
                <g id="Group" transform="translate(8.444444, 31.578947)">
                    <polygon id="Shape" fill="#FFEED5" points="14.9023333 4.73684211 6.20877778 4.73684211 0.527777778 7.56947368 0.527777778 5.50947368 6.52438889 0.526315789 14.5867222 0.526315789 20.5833333 5.50947368 20.5833333 7.56947368"></polygon>
                    <path d="M14.3956667,1.05263158 L20.0555556,5.75578947 L20.0555556,6.71789474 L15.2496111,4.32210526 L15.0268889,4.21052632 L14.7777778,4.21052632 L6.33333333,4.21052632 L6.08422222,4.21052632 L5.8615,4.32210526 L1.05555556,6.71789474 L1.05555556,5.75578947 L6.71544444,1.05263158 L14.3956667,1.05263158 L14.3956667,1.05263158 Z M14.7777778,0 L6.33333333,0 L0,5.26315789 L0,8.42105263 L6.33333333,5.26315789 L14.7777778,5.26315789 L21.1111111,8.42105263 L21.1111111,5.26315789 L14.7777778,0 L14.7777778,0 Z" id="Shape" fill="#FF9900"></path>
                </g>
                <g id="Group" transform="translate(0.000000, 15.789474)">
                    <polygon id="Shape" fill="#FFEED5" points="23.2961111 7.89473684 14.7038889 7.89473684 0.527777778 11.9336842 0.527777778 8.72631579 14.9181667 0.526315789 23.0818333 0.526315789 37.4722222 8.72631579 37.4722222 11.9336842"></polygon>
                    <path d="M22.9414444,1.05263158 L36.9444444,9.03157895 L36.9444444,11.2357895 L23.5125,7.40842105 L23.37,7.36842105 L23.2222222,7.36842105 L14.7777778,7.36842105 L14.63,7.36842105 L14.4875,7.40842105 L1.05555556,11.2357895 L1.05555556,9.03157895 L15.0585556,1.05263158 L22.9414444,1.05263158 L22.9414444,1.05263158 Z M23.2222222,0 L14.7777778,0 L0,8.42105263 L0,12.6315789 L14.7777778,8.42105263 L23.2222222,8.42105263 L38,12.6315789 L38,8.42105263 L23.2222222,0 L23.2222222,0 Z" id="Shape" fill="#FF9900"></path>
                </g>
                <g id="Group" transform="translate(14.777778, 0.000000)">
                    <path d="M0.527777778,36.3157895 L0.527777778,4.21052632 C0.527777778,2.17894737 2.185,0.526315789 4.22222222,0.526315789 C6.25944444,0.526315789 7.91666667,2.17894737 7.91666667,4.21052632 L7.91666667,36.3157895 L0.527777778,36.3157895 Z" id="Shape" fill="#FFEED5"></path>
                    <path d="M4.22222222,1.05263158 C5.96811111,1.05263158 7.38888889,2.46947368 7.38888889,4.21052632 L7.38888889,35.7894737 L1.05555556,35.7894737 L1.05555556,4.21052632 C1.05555556,2.46947368 2.47633333,1.05263158 4.22222222,1.05263158 L4.22222222,1.05263158 Z M4.22222222,0 C1.8905,0 0,1.88526316 0,4.21052632 L0,36.8421053 L8.44444444,36.8421053 L8.44444444,4.21052632 C8.44444444,1.88526316 6.55394444,0 4.22222222,0 L4.22222222,0 Z" id="Shape" fill="#FF9900"></path>
                </g>
            </g>
        </g>
    </g>
</svg>