<?xml version="1.0" encoding="UTF-8"?>
<svg width="12px" height="12px" viewBox="0 0 12 12" version="1.1" xmlns="http://www.w3.org/2000/svg" xmlns:xlink="http://www.w3.org/1999/xlink">
    <!-- Generator: Sketch 45.2 (43514) - http://www.bohemiancoding.com/sketch -->
    <title>icon-phone</title>
    <desc>Created with Sketch.</desc>
    <defs></defs>
    <g id="Components" stroke="none" stroke-width="1" fill="none" fill-rule="evenodd">
        <g id="Artboard" transform="translate(-1191.000000, -40.000000)" fill="#FFFFFF">
            <g id="icon-phone" transform="translate(1191.000000, 40.000000)">
                <path d="M8.03906346,11.2734375 C4.96092307,9.22655227 2.39063627,6.65626547 0.328125957,3.5625 C0.234375488,3.40624922 0.156251269,3.23437594 0.0937509566,3.046875 C-0.125000137,2.28124617 0.0390607223,1.62500273 0.585938457,1.078125 L1.26562596,0.3984375 C1.53125228,0.14843625 1.859374,0.0156250781 2.25000096,0 C2.60937775,0 2.92968705,0.132811172 3.21093846,0.3984375 L4.47656346,1.640625 C4.60156408,1.76562562 4.70312557,1.92187406 4.78125096,2.109375 C5.00000205,2.67187781 4.89844057,3.16406039 4.47656346,3.5859375 L4.17187596,3.8671875 C5.23438127,5.16406898 6.42186939,6.35155711 7.73437596,7.4296875 L8.01562596,7.125 C8.28125228,6.87499875 8.60156158,6.74218758 8.97656346,6.7265625 C9.35156533,6.7265625 9.67968705,6.85937367 9.96093846,7.125 L11.203126,8.390625 C11.3281266,8.51562563 11.4296881,8.67187406 11.5078135,8.859375 C11.7265646,9.42187781 11.6250031,9.91406039 11.203126,10.3359375 L10.5234385,11.015625 C10.1484366,11.3750018 9.68750369,11.5624999 9.14062596,11.578125 C8.73437393,11.578125 8.3671901,11.4765635 8.03906346,11.2734375 Z" id="shape"></path>
            </g>
        </g>
    </g>
</svg>