<?xml version="1.0" encoding="UTF-8"?>
<svg width="38px" height="38px" viewBox="0 0 38 38" version="1.1" xmlns="http://www.w3.org/2000/svg" xmlns:xlink="http://www.w3.org/1999/xlink">
    <!-- Generator: Sketch 45.2 (43514) - http://www.bohemiancoding.com/sketch -->
    <title>icon-cargo-ship</title>
    <desc>Created with Sketch.</desc>
    <defs></defs>
    <g id="Components" stroke="none" stroke-width="1" fill="none" fill-rule="evenodd">
        <g id="Artboard" transform="translate(-1207.000000, -113.000000)">
            <g id="icon-cargo-ship" transform="translate(1207.000000, 113.000000)">
                <path d="M4.5,7 L4.5,7 C4.225,7 4,6.775 4,6.5 L4,0.5 C4,0.225 4.225,0 4.5,0 L4.5,0 C4.775,0 5,0.225 5,0.5 L5,6.5 C5,6.775 4.775,7 4.5,7 Z" id="Shape" fill="#FF9900" fill-rule="nonzero"></path>
                <g id="Group" transform="translate(15.000000, 6.000000)" fill-rule="nonzero">
                    <rect id="Rectangle-path" fill="#FFD596" x="0.5" y="0.5" width="6" height="6"></rect>
                    <path d="M6,1 L6,6 L1,6 L1,1 L6,1 L6,1 Z M7,0 L0,0 L0,7 L7,7 L7,0 L7,0 Z" id="Shape" fill="#FF9900"></path>
                </g>
                <g id="Group" transform="translate(21.000000, 6.000000)" fill-rule="nonzero">
                    <rect id="Rectangle-path" fill="#FFD596" x="0.5" y="0.5" width="6" height="6"></rect>
                    <path d="M6,1 L6,6 L1,6 L1,1 L6,1 L6,1 Z M7,0 L0,0 L0,7 L7,7 L7,0 L7,0 Z" id="Shape" fill="#FF9900"></path>
                </g>
                <g id="Group" transform="translate(27.000000, 6.000000)" fill-rule="nonzero">
                    <rect id="Rectangle-path" fill="#FFD596" x="0.5" y="0.5" width="6" height="6"></rect>
                    <path d="M6,1 L6,6 L1,6 L1,1 L6,1 L6,1 Z M7,0 L0,0 L0,7 L7,7 L7,0 L7,0 Z" id="Shape" fill="#FF9900"></path>
                </g>
                <g id="Group" transform="translate(15.000000, 12.000000)" fill-rule="nonzero">
                    <rect id="Rectangle-path" fill="#FFD596" x="0.5" y="0.5" width="6" height="6"></rect>
                    <path d="M6,1 L6,6 L1,6 L1,1 L6,1 L6,1 Z M7,0 L0,0 L0,7 L7,7 L7,0 L7,0 Z" id="Shape" fill="#FF9900"></path>
                </g>
                <g id="Group" transform="translate(21.000000, 12.000000)" fill-rule="nonzero">
                    <rect id="Rectangle-path" fill="#FFD596" x="0.5" y="0.5" width="6" height="6"></rect>
                    <path d="M6,1 L6,6 L1,6 L1,1 L6,1 L6,1 Z M7,0 L0,0 L0,7 L7,7 L7,0 L7,0 Z" id="Shape" fill="#FF9900"></path>
                </g>
                <g id="Group" transform="translate(27.000000, 12.000000)" fill-rule="nonzero">
                    <rect id="Rectangle-path" fill="#FFD596" x="0.5" y="0.5" width="6" height="6"></rect>
                    <path d="M6,1 L6,6 L1,6 L1,1 L6,1 L6,1 Z M7,0 L0,0 L0,7 L7,7 L7,0 L7,0 Z" id="Shape" fill="#FF9900"></path>
                </g>
                <g id="Group" transform="translate(0.000000, 5.000000)" fill-rule="nonzero">
                    <polygon id="Shape" fill="#FFEED5" points="0.5 13.5 0.5 0.5 11.39 0.5 10.51 4.902 10.501 13.5"></polygon>
                    <path d="M10.78,1 L10.019,4.804 L10,4.901 L10,5 L10,13 L1,13 L1,1 L10.78,1 L10.78,1 Z M12,0 L0,0 L0,14 L11,14 L11,5 L12,0 L12,0 Z" id="Shape" fill="#FF9900"></path>
                </g>
                <g id="Group" transform="translate(0.000000, 15.000000)" fill-rule="nonzero">
                    <path d="M3.208,18.557 C3.15,16.501 2.695,15.261 2.174,13.839 C1.448,11.861 0.55,9.412 0.502,3.5 C0.502,3.5 23.005,3.5 23.008,3.5 C23.673,3.5 26.612,3.343 29.223,0.5 L37.497,0.5 C37.419,8.303 35.504,11.333 33.958,13.777 C33.014,15.271 32.189,16.575 32.083,18.56 L18.206,20.394 L3.208,18.557 Z" id="Shape" fill="#FFD596"></path>
                    <path d="M36.99,1 C36.837,8.288 35.014,11.173 33.536,13.51 C32.656,14.901 31.819,16.226 31.618,18.117 L18.203,19.89 L3.689,18.112 C3.579,16.217 3.123,14.974 2.643,13.667 C1.916,11.684 1.097,9.452 1.008,4 L22.951,3.999 C22.951,3.999 22.994,4.001 23.075,4.001 C23.675,4.001 26.713,3.852 29.439,1 L36.99,1 L36.99,1 Z M38,0 C38,0 31.555,0 29,0 C26.469,2.872 23.576,3.001 23.076,3.001 C23.026,3.001 23,3 23,3 L0,3 C0,13.857 2.714,13.592 2.714,19 L18.207,20.898 L32.571,19 C32.571,13.592 38,13.571 38,0 L38,0 Z" id="Shape" fill="#FF9900"></path>
                </g>
                <rect id="Rectangle-path" fill="#FFD596" fill-rule="nonzero" x="4" y="8" width="2" height="3"></rect>
                <g id="Group" transform="translate(0.000000, 15.000000)" fill-rule="nonzero">
                    <path d="M0.69,7.5 C0.562,6.34 0.509,5.201 0.501,3.5 L23.302,3.5 L23.444,3.231 C23.502,3.12 24.922,0.5 28.5,0.5 L37.498,0.5 C37.472,3.255 37.23,5.502 36.745,7.5 L0.69,7.5 Z" id="Shape" fill="#FFEED5"></path>
                    <path d="M36.99,1 C36.945,3.316 36.737,5.259 36.348,7 L1.142,7 C1.06,6.12 1.019,5.207 1.005,4 L23,4 L23.602,3.993 L23.885,3.465 C23.939,3.365 25.244,1 28.5,1 L36.99,1 L36.99,1 Z M38,0 C38,0 31.055,0 28.5,0 C24.553,0 23,3 23,3 L0,3 C0,5.223 0.064,6.546 0.245,8 L37.134,8 C37.659,6 38,3.516 38,0 L38,0 Z" id="Shape" fill="#FF9900"></path>
                </g>
                <path d="M29,22 C29,20.895 29.895,20 31,20 L32,20 C33.105,20 34,20.895 34,22 L29,22 Z" id="Shape" fill="#FFD596" fill-rule="nonzero"></path>
                <g id="Group" transform="translate(0.000000, 31.000000)">
                    <path d="M0,7 L38,7 L38,0.877 C36.692,0.614 35.148,0 34,0 C32.542,0 30.437,1 29,1 C27.562,1 25.458,0 24,0 C22.542,0 20.437,1 19,1 C17.562,1 15.458,0 14,0 C12.542,0 10.437,1 9,1 C7.562,1 5.458,0 4,0 C2.852,0 1.308,0.614 0,0.877 L0,7 Z" id="Shape" fill="#FFEED5" fill-rule="nonzero"></path>
                    <path d="M0.5,1.278 C0.863,1.191 1.238,1.087 1.613,0.981 C2.459,0.745 3.335,0.5 4,0.5 C4.663,0.5 5.537,0.746 6.382,0.984 C7.283,1.237 8.215,1.5 9,1.5 C9.785,1.5 10.717,1.237 11.618,0.984 C12.463,0.746 13.337,0.5 14,0.5 C14.663,0.5 15.537,0.746 16.382,0.984 C17.283,1.237 18.215,1.5 19,1.5 C19.785,1.5 20.717,1.237 21.618,0.984 C22.463,0.746 23.337,0.5 24,0.5 C24.663,0.5 25.537,0.746 26.382,0.984 C27.283,1.237 28.215,1.5 29,1.5 C29.785,1.5 30.717,1.237 31.618,0.984 C32.463,0.746 33.337,0.5 34,0.5 C34.665,0.5 35.541,0.745 36.387,0.981 C36.762,1.086 37.137,1.191 37.5,1.278" id="Shape" stroke="#FF9900" stroke-linecap="round"></path>
                </g>
                <polygon id="Shape" fill="#FFD596" fill-rule="nonzero" points="8 11 10 11 10 11 10 10 10 9.901 10.019 9.804 10.38 8 8 8"></polygon>
            </g>
        </g>
    </g>
</svg>