<?xml version="1.0" encoding="UTF-8"?>
<svg width="28px" height="36px" viewBox="0 0 28 36" version="1.1" xmlns="http://www.w3.org/2000/svg" xmlns:xlink="http://www.w3.org/1999/xlink">
    <!-- Generator: Sketch 45.2 (43514) - http://www.bohemiancoding.com/sketch -->
    <title>icon-document</title>
    <desc>Created with Sketch.</desc>
    <defs></defs>
    <g id="Components" stroke="none" stroke-width="1" fill="none" fill-rule="evenodd">
        <g id="Artboard" transform="translate(-375.000000, -454.000000)" fill-rule="nonzero">
            <g id="icon-document" transform="translate(375.000000, 454.000000)">
                <g id="Group">
                    <polygon id="Shape" fill="#FFFFFF" points="0.5 35.5 0.5 0.5 18.793 0.5 27.5 9.207 27.5 35.5"></polygon>
                    <path d="M18.586,1 L27,9.414 L27,35 L1,35 L1,1 L18.586,1 L18.586,1 Z M19,0 L0,0 L0,36 L28,36 L28,9 L19,0 L19,0 Z" id="Shape" fill="#FF9900"></path>
                </g>
                <g id="Group" transform="translate(18.000000, 0.000000)">
                    <polygon id="Shape" fill="#FFD596" points="0.5 9.5 0.5 0.5 0.793 0.5 9.5 9.207 9.5 9.5"></polygon>
                    <path d="M1,1.414 L8.586,9 L1,9 L1,1.414 L1,1.414 Z M1,0 L0,0 L0,10 L10,10 L10,9 L1,0 L1,0 Z" id="Shape" fill="#FF9900"></path>
                </g>
                <path d="M21.5,15 L6.5,15 C6.224,15 6,14.776 6,14.5 L6,14.5 C6,14.224 6.224,14 6.5,14 L21.5,14 C21.776,14 22,14.224 22,14.5 L22,14.5 C22,14.776 21.776,15 21.5,15 Z" id="Shape" fill="#FF9900"></path>
                <path d="M17.5,18 L6.5,18 C6.224,18 6,17.776 6,17.5 L6,17.5 C6,17.224 6.224,17 6.5,17 L17.5,17 C17.776,17 18,17.224 18,17.5 L18,17.5 C18,17.776 17.776,18 17.5,18 Z" id="Shape" fill="#FF9900"></path>
                <path d="M21.5,21 L6.5,21 C6.224,21 6,20.776 6,20.5 L6,20.5 C6,20.224 6.224,20 6.5,20 L21.5,20 C21.776,20 22,20.224 22,20.5 L22,20.5 C22,20.776 21.776,21 21.5,21 Z" id="Shape" fill="#FF9900"></path>
                <path d="M17.5,24 L6.5,24 C6.224,24 6,23.776 6,23.5 L6,23.5 C6,23.224 6.224,23 6.5,23 L17.5,23 C17.776,23 18,23.224 18,23.5 L18,23.5 C18,23.776 17.776,24 17.5,24 Z" id="Shape" fill="#FF9900"></path>
                <path d="M21.5,27 L6.5,27 C6.224,27 6,26.776 6,26.5 L6,26.5 C6,26.224 6.224,26 6.5,26 L21.5,26 C21.776,26 22,26.224 22,26.5 L22,26.5 C22,26.776 21.776,27 21.5,27 Z" id="Shape" fill="#FF9900"></path>
            </g>
        </g>
    </g>
</svg>