<?xml version="1.0" encoding="UTF-8" ?>
<!DOCTYPE svg PUBLIC "-//W3C//DTD SVG 1.1//EN" "http://www.w3.org/Graphics/SVG/1.1/DTD/svg11.dtd">
<svg width="220pt" height="220pt" viewBox="0 0 220 220" version="1.1" xmlns="http://www.w3.org/2000/svg">
<g id="#ff9900ff">
<path fill="#ff9900" opacity="1.00" d=" M 107.29 0.00 L 115.38 0.00 C 148.76 1.25 182.07 10.13 211.00 26.97 C 211.00 49.97 210.99 72.97 211.01 95.97 C 211.01 102.34 209.67 108.60 208.72 114.88 C 215.32 123.38 219.28 133.81 220.00 144.55 L 220.00 150.32 C 219.21 162.88 213.97 175.14 205.10 184.12 C 193.65 196.05 176.32 202.00 159.97 199.40 C 157.91 199.23 155.52 198.24 153.77 199.84 C 140.53 208.96 125.76 215.99 110.17 220.00 L 109.94 220.00 C 87.87 214.33 67.37 202.82 50.69 187.32 C 25.86 164.43 11.64 131.46 9.03 98.04 C 8.95 74.35 9.03 50.66 8.99 26.98 C 38.70 9.73 73.00 0.69 107.29 0.00 M 16.01 31.02 C 15.99 49.69 16.00 68.37 16.00 87.04 C 15.03 111.59 22.41 136.06 34.92 157.06 C 50.28 182.37 75.25 201.13 103.08 210.76 C 105.84 211.51 108.66 213.33 111.59 212.50 C 124.18 208.74 136.09 202.97 147.19 195.98 C 138.83 192.42 131.54 186.66 125.86 179.59 C 121.70 181.37 117.49 183.08 113.13 184.33 C 109.52 185.67 105.94 183.60 102.54 182.57 C 81.13 174.83 62.37 159.21 52.13 138.73 C 45.42 125.24 41.50 110.12 42.04 95.00 C 42.09 81.37 41.95 67.75 42.11 54.13 C 59.18 44.41 78.36 38.48 97.90 36.60 C 125.85 34.01 154.49 40.27 178.89 54.12 C 179.06 68.15 178.90 82.18 178.96 96.22 C 187.79 98.28 196.06 102.53 202.79 108.61 C 203.34 104.43 204.05 100.24 204.02 96.00 C 203.97 74.34 204.02 52.68 203.99 31.02 C 177.71 16.59 148.04 8.33 118.07 7.18 C 82.73 5.65 47.00 13.96 16.01 31.02 M 49.94 57.92 C 48.51 58.69 49.26 60.71 49.01 62.01 C 49.08 72.69 49.03 83.37 49.04 94.05 C 48.24 112.31 54.24 130.52 64.37 145.59 C 75.43 161.28 92.22 172.21 110.39 177.92 C 114.24 176.55 118.16 175.35 121.87 173.61 C 118.25 166.97 115.80 159.65 115.21 152.08 C 113.83 137.33 119.11 122.10 129.41 111.42 C 140.12 99.85 156.28 93.84 171.96 95.14 C 171.97 84.10 171.92 73.06 171.99 62.02 C 171.74 60.71 172.50 58.68 171.05 57.91 C 133.90 38.14 87.08 38.14 49.94 57.92 M 159.48 102.62 C 138.98 106.12 122.22 125.09 122.03 146.00 C 121.10 163.52 131.76 180.82 147.52 188.34 C 156.32 193.01 166.70 193.91 176.41 192.22 C 190.28 189.35 202.70 179.82 208.63 166.89 C 213.04 158.30 213.84 148.23 212.26 138.81 C 209.46 124.85 199.89 112.33 186.89 106.38 C 178.50 102.05 168.70 101.22 159.48 102.62 Z" />
<path fill="#ff9900" opacity="1.00" d=" M 191.36 130.04 C 192.95 131.75 194.59 133.41 196.26 135.06 C 185.26 146.08 174.17 157.02 163.26 168.13 C 154.84 160.64 147.51 151.99 139.02 144.58 C 140.52 142.69 142.18 140.92 143.94 139.27 C 150.54 145.44 156.45 152.39 163.38 158.17 C 172.58 148.67 182.07 139.45 191.36 130.04 Z" />
</g>
<g id="#ffeed5ff">
<path fill="#ffeed5" opacity="1.00" d=" M 16.01 31.02 C 47.00 13.96 82.73 5.65 118.07 7.18 C 148.04 8.33 177.71 16.59 203.99 31.02 C 204.02 52.68 203.97 74.34 204.02 96.00 C 204.05 100.24 203.34 104.43 202.79 108.61 C 196.06 102.53 187.79 98.28 178.96 96.22 C 178.90 82.18 179.06 68.15 178.89 54.12 C 154.49 40.27 125.85 34.01 97.90 36.60 C 78.36 38.48 59.18 44.41 42.11 54.13 C 41.95 67.75 42.09 81.37 42.04 95.00 C 41.50 110.12 45.42 125.24 52.13 138.73 C 62.37 159.21 81.13 174.83 102.54 182.57 C 105.94 183.60 109.52 185.67 113.13 184.33 C 117.49 183.08 121.70 181.37 125.86 179.59 C 131.54 186.66 138.83 192.42 147.19 195.98 C 136.09 202.97 124.18 208.74 111.59 212.50 C 108.66 213.33 105.84 211.51 103.08 210.76 C 75.25 201.13 50.28 182.37 34.92 157.06 C 22.41 136.06 15.03 111.59 16.00 87.04 C 16.00 68.37 15.99 49.69 16.01 31.02 Z" />
<path fill="#ffeed5" opacity="1.00" d=" M 49.94 57.92 C 87.08 38.14 133.90 38.14 171.05 57.91 C 172.50 58.68 171.74 60.71 171.99 62.02 C 171.92 73.06 171.97 84.10 171.96 95.14 C 156.28 93.84 140.12 99.85 129.41 111.42 C 119.11 122.10 113.83 137.33 115.21 152.08 C 115.80 159.65 118.25 166.97 121.87 173.61 C 118.16 175.35 114.24 176.55 110.39 177.92 C 92.22 172.21 75.43 161.28 64.37 145.59 C 54.24 130.52 48.24 112.31 49.04 94.05 C 49.03 83.37 49.08 72.69 49.01 62.01 C 49.26 60.71 48.51 58.69 49.94 57.92 Z" />
<path fill="#ffeed5" opacity="1.00" d=" M 159.48 102.62 C 168.70 101.22 178.50 102.05 186.89 106.38 C 199.89 112.33 209.46 124.85 212.26 138.81 C 213.84 148.23 213.04 158.30 208.63 166.89 C 202.70 179.82 190.28 189.35 176.41 192.22 C 166.70 193.91 156.32 193.01 147.52 188.34 C 131.76 180.82 121.10 163.52 122.03 146.00 C 122.22 125.09 138.98 106.12 159.48 102.62 M 191.36 130.04 C 182.07 139.45 172.58 148.67 163.38 158.17 C 156.45 152.39 150.54 145.44 143.94 139.27 C 142.18 140.92 140.52 142.69 139.02 144.58 C 147.51 151.99 154.84 160.64 163.26 168.13 C 174.17 157.02 185.26 146.08 196.26 135.06 C 194.59 133.41 192.95 131.75 191.36 130.04 Z" />
</g>
</svg>
